<svg xmlns="http://www.w3.org/2000/svg" width="512" height="512" viewBox="0 0 512 512" role="img" aria-label="Plataxi">
  <title>Plataxi</title>
  <!-- Squircle badge (superellipse), palette yellow. -->
  <path fill="#f6d860" d="M512.00 256.00C512.00 293.79 511.71 344.52 511.12 369.37C510.53 394.23 509.66 394.93 508.48 405.08C507.29 415.24 505.82 422.85 504.03 430.34C502.22 437.82 500.13 444.08 497.69 450.01C495.24 455.94 492.49 461.09 489.36 465.91C486.22 470.71 482.76 474.96 478.86 478.86C474.96 482.76 470.71 486.22 465.91 489.36C461.09 492.49 455.94 495.24 450.01 497.69C444.08 500.13 437.82 502.22 430.34 504.03C422.85 505.82 415.24 507.29 405.08 508.48C394.93 509.66 394.23 510.53 369.37 511.12C344.52 511.71 293.79 512.00 256.00 512.00C218.21 512.00 167.48 511.71 142.63 511.12C117.77 510.53 117.07 509.66 106.92 508.48C96.76 507.29 89.15 505.82 81.66 504.03C74.18 502.22 67.92 500.13 61.99 497.69C56.06 495.24 50.91 492.49 46.09 489.36C41.29 486.22 37.04 482.76 33.14 478.86C29.24 474.96 25.78 470.71 22.64 465.91C19.51 461.09 16.76 455.94 14.31 450.01C11.87 444.08 9.78 437.82 7.97 430.34C6.18 422.85 4.71 415.24 3.52 405.08C2.34 394.93 1.47 394.23 0.88 369.37C0.29 344.52 0.00 293.79 0.00 256.00C0.00 218.21 0.29 167.48 0.88 142.63C1.47 117.77 2.34 117.07 3.52 106.92C4.71 96.76 6.18 89.15 7.97 81.66C9.78 74.18 11.87 67.92 14.31 61.99C16.76 56.06 19.51 50.91 22.64 46.09C25.78 41.29 29.24 37.04 33.14 33.14C37.04 29.24 41.29 25.78 46.09 22.64C50.91 19.51 56.06 16.76 61.99 14.31C67.92 11.87 74.18 9.78 81.66 7.97C89.15 6.18 96.76 4.71 106.92 3.52C117.07 2.34 117.77 1.47 142.63 0.88C167.48 0.29 218.21 0.00 256.00 0.00C293.79 0.00 344.52 0.29 369.37 0.88C394.23 1.47 394.93 2.34 405.08 3.52C415.24 4.71 422.85 6.18 430.34 7.97C437.82 9.78 444.08 11.87 450.01 14.31C455.94 16.76 461.09 19.51 465.91 22.64C470.71 25.78 474.96 29.24 478.86 33.14C482.76 37.04 486.22 41.29 489.36 46.09C492.49 50.91 495.24 56.06 497.69 61.99C500.13 67.92 502.22 74.18 504.03 81.66C505.82 89.15 507.29 96.76 508.48 106.92C509.66 117.07 510.53 117.77 511.12 142.63C511.71 167.48 512.00 218.21 512.00 256.00Z"/>
  <g fill="#111110">
    <polygon points="170.76,159.13 341.24,159.13 383.86,233.72 128.14,233.72" />
    <polygon points="76.80,254.07 136.86,254.07 168.82,302.49 103.92,302.49" />
    <polygon points="375.14,254.07 435.20,254.07 408.08,302.49 343.18,302.49" />
    <polygon points="168.82,302.49 343.18,302.49 311.22,350.92 200.78,350.92" />
  </g>
</svg>
